<svg width="67" height="39" xmlns="http://www.w3.org/2000/svg"><defs><linearGradient x1="-30.81%" y1="-10.124%" x2="128.763%" y2="94.225%" id="a"><stop stop-color="#F277D0" offset="29%"/><stop stop-color="#8A8FDD" offset="51%"/><stop stop-color="#37D1E5" offset="74%"/><stop stop-color="#5ACFB9" offset="92%"/></linearGradient><linearGradient x1="-41.951%" y1="-5.539%" x2="168.367%" y2="98.742%" id="b"><stop stop-color="#F277D0" offset="29%"/><stop stop-color="#8A8FDD" offset="51%"/><stop stop-color="#37D1E5" offset="74%"/><stop stop-color="#5ACFB9" offset="92%"/></linearGradient><linearGradient x1="5.052%" y1="49.54%" x2="105.76%" y2="50.408%" id="c"><stop stop-color="#5ACFB9" offset="0%"/><stop stop-color="#37D1E5" stop-opacity=".5" offset="51%"/><stop stop-color="#37D1E5" stop-opacity="0" offset="91%"/></linearGradient><linearGradient x1="-10.233%" y1="-48.953%" x2="109.319%" y2="98.229%" id="d"><stop stop-color="#F277D0" stop-opacity="0" offset="1%"/><stop stop-color="#F277D0" stop-opacity=".6" offset="23%"/><stop stop-color="#F0AAA3" offset="58%"/><stop stop-color="#FFF" stop-opacity="0" offset="92%"/></linearGradient></defs><g fill="none" fill-rule="evenodd"><path d="M45.2 38.8a6.51 6.51 0 0 1-5.71-3.3l-2.6-4.5a2.75 2.75 0 1 1 4.76-2.75l2.6 4.5a1.06 1.06 0 0 0 1 .55 1 1 0 0 0 .94-.55L60.83 7.32a1.1 1.1 0 0 0-1-1.64H44L27.52 35.46a6.6 6.6 0 0 1-11.45 0L1.39 10.07A6.6 6.6 0 0 1 7.1.18h17.95A4.7 4.7 0 0 1 29.35 3l-4.81 2.71H7.1a1.1 1.1 0 0 0-1 1.64l14.74 25.4a1 1 0 0 0 .94.55c.394.008.76-.204.95-.55L39.5 2.36A4.21 4.21 0 0 1 43.18.18h16.7a6.6 6.6 0 0 1 5.71 9.89L50.91 35.5a6.53 6.53 0 0 1-5.71 3.3Z" fill="url(#a)"/><path d="M47.54 5.68a5.64 5.64 0 0 1 .52-1.41A46.91 46.91 0 0 1 50.55.18h-7.37a4.21 4.21 0 0 0-3.68 2.18L22.73 32.75a1.06 1.06 0 0 1-.95.55 1 1 0 0 1-.94-.55L6.15 7.32a1.1 1.1 0 0 1 1-1.64h17.39L29.35 3a4.7 4.7 0 0 0-4.3-2.79H7.1a6.6 6.6 0 0 0-5.71 9.89l14.68 25.4a6.6 6.6 0 0 0 11.45 0L44 5.68h3.54Z" fill="url(#b)"/><path d="M62.66.79a42.51 42.51 0 0 0-3.78 4.89h1a1.1 1.1 0 0 1 1 1.64L46.14 32.75a1 1 0 0 1-.94.55 1.06 1.06 0 0 1-1-.55l-2.6-4.5A2.75 2.75 0 1 0 36.89 31l2.6 4.5a6.59 6.59 0 0 0 11.42 0l14.68-25.43a6.53 6.53 0 0 0 0-6.59A6.61 6.61 0 0 0 62.66.79Z" fill="url(#c)"/><path d="M29.35 3a4.7 4.7 0 0 0-4.3-2.79H11.8l2.86 5.5h9.88l5.75 13.13 3.4-6L29.35 3Z" fill="url(#d)"/></g></svg>